<?xml version="1.0" encoding="UTF-8" standalone="no"?>
<!-- Created with Inkscape (http://www.inkscape.org/) -->

<svg
   width="210mm"
   height="297mm"
   viewBox="0 0 210 297"
   version="1.1"
   id="svg1"
   inkscape:version="1.3 (0e150ed, 2023-07-21)"
   sodipodi:docname="bookworm_no_book.svg"
   xmlns:inkscape="http://www.inkscape.org/namespaces/inkscape"
   xmlns:sodipodi="http://sodipodi.sourceforge.net/DTD/sodipodi-0.dtd"
   xmlns="http://www.w3.org/2000/svg"
   xmlns:svg="http://www.w3.org/2000/svg">
  <sodipodi:namedview
     id="namedview1"
     pagecolor="#ffffff"
     bordercolor="#000000"
     borderopacity="0.25"
     inkscape:showpageshadow="2"
     inkscape:pageopacity="0.0"
     inkscape:pagecheckerboard="0"
     inkscape:deskcolor="#d1d1d1"
     inkscape:document-units="mm"
     inkscape:zoom="1.6666822"
     inkscape:cx="276.59742"
     inkscape:cy="449.99581"
     inkscape:window-width="1312"
     inkscape:window-height="449"
     inkscape:window-x="0"
     inkscape:window-y="25"
     inkscape:window-maximized="0"
     inkscape:current-layer="layer1" />
  <defs
     id="defs1" />
  <g
     inkscape:label="Layer 1"
     inkscape:groupmode="layer"
     id="layer1">
    <path
       style="fill:#f9f9f9;fill-opacity:0.972549;stroke:#000000;stroke-width:0.499999;stroke-linecap:round"
       id="path5-7-5"
       sodipodi:type="arc"
       sodipodi:cx="103.22337"
       sodipodi:cy="126.49284"
       sodipodi:rx="9.8424082"
       sodipodi:ry="5.0005784"
       sodipodi:start="0.95523479"
       sodipodi:end="0.94373544"
       sodipodi:open="true"
       sodipodi:arc-type="arc"
       d="m 108.90655,130.57556 a 9.8424082,5.0005784 0 0 1 -13.702633,-1.18357 9.8424082,5.0005784 0 0 1 2.290173,-6.9652 9.8424082,5.0005784 0 0 1 13.7158,1.14353 9.8424082,5.0005784 0 0 1 -2.21131,6.97177" />
    <path
       style="fill:#ffe680;fill-opacity:0.972549;stroke:#000000;stroke-width:0.499999;stroke-linecap:round"
       id="path5-7-43"
       sodipodi:type="arc"
       sodipodi:cx="100.89504"
       sodipodi:cy="127.76284"
       sodipodi:rx="9.8424082"
       sodipodi:ry="5.0005784"
       sodipodi:start="0.95523479"
       sodipodi:end="0.94373544"
       sodipodi:open="true"
       sodipodi:arc-type="arc"
       d="m 106.57822,131.84556 a 9.8424082,5.0005784 0 0 1 -13.702634,-1.18358 9.8424082,5.0005784 0 0 1 2.290173,-6.96519 9.8424082,5.0005784 0 0 1 13.715801,1.14353 9.8424082,5.0005784 0 0 1 -2.21131,6.97177" />
    <path
       style="fill:#ececec;fill-opacity:0.972549;stroke:#000000;stroke-width:0.499999;stroke-linecap:round"
       id="path5-7-81"
       sodipodi:type="arc"
       sodipodi:cx="98.143372"
       sodipodi:cy="128.39783"
       sodipodi:rx="9.8424082"
       sodipodi:ry="5.0005784"
       sodipodi:start="0.95523479"
       sodipodi:end="0.94373544"
       sodipodi:open="true"
       sodipodi:arc-type="arc"
       d="m 103.82655,132.48055 a 9.8424082,5.0005784 0 0 1 -13.702635,-1.18358 9.8424082,5.0005784 0 0 1 2.290173,-6.96519 9.8424082,5.0005784 0 0 1 13.715802,1.14352 9.8424082,5.0005784 0 0 1 -2.21131,6.97177" />
    <path
       style="fill:#ffe680;fill-opacity:0.972549;stroke:#000000;stroke-width:0.499999;stroke-linecap:round"
       id="path5-7-7"
       sodipodi:type="arc"
       sodipodi:cx="93.592537"
       sodipodi:cy="128.0274"
       sodipodi:rx="9.8424082"
       sodipodi:ry="5.0005784"
       sodipodi:start="0.95523479"
       sodipodi:end="0.94373544"
       sodipodi:open="true"
       sodipodi:arc-type="arc"
       d="m 99.275712,132.11012 a 9.8424082,5.0005784 0 0 1 -13.702631,-1.18357 9.8424082,5.0005784 0 0 1 2.290172,-6.9652 9.8424082,5.0005784 0 0 1 13.715797,1.14353 9.8424082,5.0005784 0 0 1 -2.211309,6.97177" />
    <path
       style="fill:#ececec;fill-opacity:0.972549;stroke:#000000;stroke-width:0.499999;stroke-linecap:round"
       id="path5-7-9"
       sodipodi:type="arc"
       sodipodi:cx="90.576302"
       sodipodi:cy="126.75741"
       sodipodi:rx="9.8424082"
       sodipodi:ry="5.0005784"
       sodipodi:start="0.95523479"
       sodipodi:end="0.94373544"
       sodipodi:open="true"
       sodipodi:arc-type="arc"
       d="m 96.259476,130.84013 a 9.8424082,5.0005784 0 0 1 -13.702631,-1.18358 9.8424082,5.0005784 0 0 1 2.290173,-6.96519 9.8424082,5.0005784 0 0 1 13.715798,1.14353 9.8424082,5.0005784 0 0 1 -2.211311,6.97176" />
    <path
       style="fill:#ffe680;fill-opacity:0.972549;stroke:#000000;stroke-width:0.499999;stroke-linecap:round"
       id="path5-7-60"
       sodipodi:type="arc"
       sodipodi:cx="88.777138"
       sodipodi:cy="124.74657"
       sodipodi:rx="9.8424082"
       sodipodi:ry="5.0005784"
       sodipodi:start="0.95523479"
       sodipodi:end="0.94373544"
       sodipodi:open="true"
       sodipodi:arc-type="arc"
       d="m 94.460312,128.82929 a 9.8424082,5.0005784 0 0 1 -13.70263,-1.18358 9.8424082,5.0005784 0 0 1 2.290172,-6.96519 9.8424082,5.0005784 0 0 1 13.715799,1.14352 9.8424082,5.0005784 0 0 1 -2.211312,6.97177" />
    <path
       style="fill:#ececec;fill-opacity:0.972549;stroke:#000000;stroke-width:0.499999;stroke-linecap:round"
       id="path5-7-84"
       sodipodi:type="arc"
       sodipodi:cx="87.348381"
       sodipodi:cy="122.62989"
       sodipodi:rx="9.8424082"
       sodipodi:ry="5.0005784"
       sodipodi:start="0.95523479"
       sodipodi:end="0.94373544"
       sodipodi:open="true"
       sodipodi:arc-type="arc"
       d="m 93.031556,126.71261 a 9.8424082,5.0005784 0 0 1 -13.702631,-1.18357 9.8424082,5.0005784 0 0 1 2.290172,-6.9652 9.8424082,5.0005784 0 0 1 13.715799,1.14353 9.8424082,5.0005784 0 0 1 -2.211311,6.97177" />
    <path
       style="fill:#ffe680;fill-opacity:0.972549;stroke:#000000;stroke-width:0.499999;stroke-linecap:round"
       id="path5-7-4"
       sodipodi:type="arc"
       sodipodi:cx="85.549225"
       sodipodi:cy="120.35449"
       sodipodi:rx="9.8424082"
       sodipodi:ry="5.0005784"
       sodipodi:start="0.95523479"
       sodipodi:end="0.94373544"
       sodipodi:open="true"
       sodipodi:arc-type="arc"
       d="m 91.232399,124.43721 a 9.8424082,5.0005784 0 0 1 -13.70263,-1.18357 9.8424082,5.0005784 0 0 1 2.290172,-6.9652 9.8424082,5.0005784 0 0 1 13.715799,1.14353 9.8424082,5.0005784 0 0 1 -2.211312,6.97177" />
    <path
       style="fill:#ececec;fill-opacity:0.972549;stroke:#000000;stroke-width:0.499999;stroke-linecap:round"
       id="path5-7-65"
       sodipodi:type="arc"
       sodipodi:cx="85.178894"
       sodipodi:cy="117.44388"
       sodipodi:rx="9.8424082"
       sodipodi:ry="5.0005784"
       sodipodi:start="0.95523479"
       sodipodi:end="0.94373544"
       sodipodi:open="true"
       sodipodi:arc-type="arc"
       d="m 90.862069,121.5266 a 9.8424082,5.0005784 0 0 1 -13.702631,-1.18358 9.8424082,5.0005784 0 0 1 2.290172,-6.96519 9.8424082,5.0005784 0 0 1 13.715799,1.14353 9.8424082,5.0005784 0 0 1 -2.211311,6.97176" />
    <path
       style="fill:#ffe680;fill-opacity:0.972549;stroke:#000000;stroke-width:0.499999;stroke-linecap:round"
       id="path5"
       sodipodi:type="arc"
       sodipodi:cx="87.629189"
       sodipodi:cy="114.53706"
       sodipodi:rx="9.8424082"
       sodipodi:ry="5.0005784"
       sodipodi:start="0.95523479"
       sodipodi:end="0.94373544"
       sodipodi:open="true"
       sodipodi:arc-type="arc"
       d="m 93.312363,118.61978 a 9.8424082,5.0005784 0 0 1 -13.702631,-1.18357 9.8424082,5.0005784 0 0 1 2.290173,-6.9652 9.8424082,5.0005784 0 0 1 13.715798,1.14353 9.8424082,5.0005784 0 0 1 -2.211311,6.97177" />
    <path
       style="fill:#ececec;fill-opacity:0.972549;stroke:#000000;stroke-width:0.499999;stroke-linecap:round"
       id="path5-7"
       sodipodi:type="arc"
       sodipodi:cx="88.830147"
       sodipodi:cy="111.09416"
       sodipodi:rx="9.8424082"
       sodipodi:ry="5.0005784"
       sodipodi:start="0.95523479"
       sodipodi:end="0.94373544"
       sodipodi:open="true"
       sodipodi:arc-type="arc"
       d="m 94.513321,115.17688 a 9.8424082,5.0005784 0 0 1 -13.70263,-1.18357 9.8424082,5.0005784 0 0 1 2.290172,-6.9652 9.8424082,5.0005784 0 0 1 13.715799,1.14353 9.8424082,5.0005784 0 0 1 -2.211312,6.97177" />
    <path
       style="fill:#ffe680;fill-opacity:0.972549;stroke:#000000;stroke-width:0.499999;stroke-linecap:round"
       id="path5-7-8"
       sodipodi:type="arc"
       sodipodi:cx="91.52877"
       sodipodi:cy="107.76033"
       sodipodi:rx="9.8424082"
       sodipodi:ry="5.0005784"
       sodipodi:start="0.95523479"
       sodipodi:end="0.94373544"
       sodipodi:open="true"
       sodipodi:arc-type="arc"
       d="m 97.211945,111.84305 a 9.8424082,5.0005784 0 0 1 -13.702631,-1.18358 9.8424082,5.0005784 0 0 1 2.290173,-6.96519 9.8424082,5.0005784 0 0 1 13.715798,1.14353 9.8424082,5.0005784 0 0 1 -2.211311,6.97177" />
    <path
       style="fill:#ececec;fill-opacity:0.972549;stroke:#000000;stroke-width:0.499999;stroke-linecap:round"
       id="path5-7-6"
       sodipodi:type="arc"
       sodipodi:cx="92.745888"
       sodipodi:cy="104.37369"
       sodipodi:rx="9.8424082"
       sodipodi:ry="5.0005784"
       sodipodi:start="0.95523479"
       sodipodi:end="0.94373544"
       sodipodi:open="true"
       sodipodi:arc-type="arc"
       d="m 98.429062,108.45641 a 9.8424082,5.0005784 0 0 1 -13.70263,-1.18358 9.8424082,5.0005784 0 0 1 2.290172,-6.96519 9.8424082,5.0005784 0 0 1 13.715796,1.14352 9.8424082,5.0005784 0 0 1 -2.211309,6.97177" />
    <path
       style="fill:#ffe680;fill-opacity:0.972549;stroke:#000000;stroke-width:0.499999;stroke-linecap:round"
       id="path5-7-3"
       sodipodi:type="arc"
       sodipodi:cx="93.063393"
       sodipodi:cy="100.51078"
       sodipodi:rx="9.8424082"
       sodipodi:ry="5.0005784"
       sodipodi:start="0.95523479"
       sodipodi:end="0.94373544"
       sodipodi:open="true"
       sodipodi:arc-type="arc"
       d="m 98.746567,104.5935 a 9.8424082,5.0005784 0 0 1 -13.702631,-1.18358 9.8424082,5.0005784 0 0 1 2.290173,-6.965189 9.8424082,5.0005784 0 0 1 13.715801,1.143526 9.8424082,5.0005784 0 0 1 -2.211314,6.971773" />
    <path
       style="fill:#ececec;fill-opacity:0.972549;stroke:#000000;stroke-width:0.499999;stroke-linecap:round"
       id="path5-7-1"
       sodipodi:type="arc"
       sodipodi:cx="93.327972"
       sodipodi:cy="97.812012"
       sodipodi:rx="9.8424082"
       sodipodi:ry="5.0005784"
       sodipodi:start="0.95523479"
       sodipodi:end="0.94373544"
       sodipodi:open="true"
       sodipodi:arc-type="arc"
       d="m 99.011147,101.89473 a 9.8424082,5.0005784 0 0 1 -13.702631,-1.18357 9.8424082,5.0005784 0 0 1 2.290173,-6.965198 9.8424082,5.0005784 0 0 1 13.715801,1.143527 9.8424082,5.0005784 0 0 1 -2.211314,6.971771" />
    <path
       style="fill:#f9f9f9;fill-opacity:0.972549;stroke:#000000;stroke-width:0.499999;stroke-linecap:round"
       id="path6"
       sodipodi:type="arc"
       sodipodi:cx="89.692917"
       sodipodi:cy="92.788513"
       sodipodi:rx="4.1274614"
       sodipodi:ry="3.7305903"
       sodipodi:start="0.95523479"
       sodipodi:end="0.94373544"
       sodipodi:open="true"
       sodipodi:arc-type="arc"
       d="m 92.076184,95.834351 a 4.1274614,3.7305903 0 0 1 -5.746265,-0.882984 4.1274614,3.7305903 0 0 1 0.960395,-5.196256 4.1274614,3.7305903 0 0 1 5.751786,0.853107 4.1274614,3.7305903 0 0 1 -0.927324,5.201162" />
    <path
       style="fill:#f9f9f9;fill-opacity:0.972549;stroke:#000000;stroke-width:0.499999;stroke-linecap:round"
       id="path6-8"
       sodipodi:type="arc"
       sodipodi:cx="98.192635"
       sodipodi:cy="92.513"
       sodipodi:rx="4.1274614"
       sodipodi:ry="3.7305903"
       sodipodi:start="0.95523479"
       sodipodi:end="0.94373544"
       sodipodi:open="true"
       sodipodi:arc-type="arc"
       d="m 100.5759,95.558838 a 4.1274614,3.7305903 0 0 1 -5.746263,-0.882984 4.1274614,3.7305903 0 0 1 0.960395,-5.196256 4.1274614,3.7305903 0 0 1 5.751788,0.853107 4.1274614,3.7305903 0 0 1 -0.92733,5.201162" />
    <path
       style="fill:#000000;fill-opacity:0.972549;stroke:#000000;stroke-width:0.499999;stroke-linecap:round"
       id="path7"
       sodipodi:type="arc"
       sodipodi:cx="89.692917"
       sodipodi:cy="92.947258"
       sodipodi:rx="0.9524911"
       sodipodi:ry="0.87311685"
       sodipodi:start="0.95523479"
       sodipodi:end="0.94373544"
       sodipodi:open="true"
       sodipodi:arc-type="arc"
       d="m 90.242902,93.660114 a 0.9524911,0.87311685 0 0 1 -1.326062,-0.206656 0.9524911,0.87311685 0 0 1 0.22163,-1.216145 0.9524911,0.87311685 0 0 1 1.327335,0.199663 0.9524911,0.87311685 0 0 1 -0.213997,1.217293" />
    <path
       style="fill:#000000;fill-opacity:0.972549;stroke:#000000;stroke-width:0.499999;stroke-linecap:round"
       id="path7-2"
       sodipodi:type="arc"
       sodipodi:cx="98.246101"
       sodipodi:cy="92.565262"
       sodipodi:rx="0.9524911"
       sodipodi:ry="0.87311685"
       sodipodi:start="0.95523479"
       sodipodi:end="0.94373544"
       sodipodi:open="true"
       sodipodi:arc-type="arc"
       d="m 98.796086,93.278118 a 0.9524911,0.87311685 0 0 1 -1.326061,-0.206656 0.9524911,0.87311685 0 0 1 0.22163,-1.216145 0.9524911,0.87311685 0 0 1 1.327335,0.199663 0.9524911,0.87311685 0 0 1 -0.213998,1.217293" />
  </g>
</svg>
